<!DOCTYPE svg PUBLIC "-//W3C//DTD SVG 20010904//EN" "http://www.w3.org/TR/2001/REC-SVG-20010904/DTD/svg10.dtd">
<svg version="1.0" xmlns="http://www.w3.org/2000/svg" width="1200px" height="390px" viewBox="0 0 12000 3900" preserveAspectRatio="xMidYMid meet">
<g id="layer101" fill="#000000" stroke="none">
</g>
<g id="layer102" fill="#6dc4e4" stroke="none">
<path d="M0 2975 l0 -925 28 0 c49 0 181 -38 245 -71 69 -35 195 -120 367 -249 291 -219 463 -315 710 -396 77 -25 99 -28 235 -28 141 -1 153 1 205 25 118 56 215 147 339 317 100 136 216 218 345 241 84 15 259 13 341 -4 168 -36 247 -96 449 -343 253 -309 575 -501 913 -543 255 -32 568 63 825 251 64 46 227 204 360 347 168 181 343 269 609 309 203 30 385 7 532 -67 93 -47 160 -100 302 -239 243 -238 390 -346 548 -403 65 -23 104 -31 187 -34 94 -5 113 -3 178 20 88 30 202 100 278 170 31 28 109 112 172 187 217 252 294 317 436 364 199 67 411 18 621 -144 44 -34 107 -82 140 -107 317 -239 690 -283 1038 -120 97 46 331 197 407 264 104 91 292 213 365 236 86 28 225 39 364 28 69 -6 201 -12 294 -14 l167 -4 0 928 0 929 -6000 0 -6000 0 0 -925z"/>
</g>


</svg>